<?xml version='1.0' encoding='utf-8'?>
<svg xmlns="http://www.w3.org/2000/svg" width="389.0dip" height="389.0dip" viewBox="0 0 389.0 389.0">
  <path d="M39.9,211.53a17.17,17.17 0,1 0,-17.17 17A17.11,17.11 0,0 0,39.9 211.53Z" fill="white" />
  <path d="M349,245.79a17.24,17.24 0,1 0,17.23 -17.23A17.22,17.22 0,0 0,349 245.79Z" fill="white" />
  <path d="M383.44,211.53a17.24,17.24 0,1 0,-17.24 17A17.14,17.14 0,0 0,383.44 211.53Z" fill="white" />
  <path d="M366.2,194.5a17,17 0,1 0,-17.23 -17A17.13,17.13 0,0 0,366.2 194.5Z" fill="white" />
  <path d="M331.8,160.44a17.23,17.23 0,1 0,-17.17 -17.23A17.21,17.21 0,0 0,331.8 160.44Z" fill="white" />
  <path d="M280.42,143.21A17.11,17.11 0,1 0,297.52 126,17.17 17.17,0 0,0 280.42,143.21Z" fill="white" />
  <path d="M263.25,160.44a17.23,17.23 0,1 0,-17.17 -17.23A17.21,17.21 0,0 0,263.25 160.44Z" fill="white" />
  <path d="M228.84,160.44a17.23,17.23 0,1 0,-17.24 -17.23A17.24,17.24 0,0 0,228.84 160.44Z" fill="white" />
  <path d="M211.6,143.21a17.17,17.17 0,1 0,-17.17 17.23A17.19,17.19 0,0 0,211.6 143.21Z" fill="white" />
  <path d="M125.62,160.44a17.23,17.23 0,1 0,-17.17 -17.23A17.21,17.21 0,0 0,125.62 160.44Z" fill="white" />
  <path d="M108.45,143.21a17,17 0,1 0,-17 17.23A17.13,17.13 0,0 0,108.45 143.21Z" fill="white" />
  <path d="M246.08,109a17.24,17.24 0,1 0,-17.24 17A17.13,17.13 0,0 0,246.08 109Z" fill="white" />
  <path d="M246.08,108.95a17.17,17.03 0,1 0,34.34 0a17.17,17.03 0,1 0,-34.34 0z" fill="white" />
  <path d="M297.52,126a17,17 0,1 0,-17.1 -17A17.07,17.07 0,0 0,297.52 126Z" fill="white" />
  <path d="M22.73,228.56A17.23,17.23 0,1 0,39.9 245.79,17.21 17.21,0 0,0 22.73,228.56Z" fill="white" />
  <path d="M57.14,228.56a17,17 0,1 0,-17.24 -17A17.13,17.13 0,0 0,57.14 228.56Z" fill="white" />
  <path d="M74.37,245.79A17.24,17.24 0,1 0,57.14 263,17.23 17.23,0 0,0 74.37,245.79Z" fill="white" />
  <path d="M57.14,263a17,17 0,1 0,17.23 17A17.14,17.14 0,0 0,57.14 263Z" fill="white" />
  <path d="M74.37,177.47a17.24,17.24 0,1 0,-17.23 17A17.13,17.13 0,0 0,74.37 177.47Z" fill="white" />
  <path d="M91.41,228.56a17,17 0,1 0,-17 -17A17,17 0,0 0,91.41 228.56Z" fill="white" />
  <path d="M91.41,228.56a17.23,17.23 0,1 0,17 17.23A17.14,17.14 0,0 0,91.41 228.56Z" fill="white" />
  <path d="M91.41,263a17,17 0,1 0,17 17A17,17 0,0 0,91.41 263Z" fill="white" />
  <path d="M91.41,194.5a17,17 0,1 0,-17 -17A17,17 0,0 0,91.41 194.5Z" fill="white" />
  <path d="M108.45,211.53a17.17,17.03 0,1 0,34.34 0a17.17,17.03 0,1 0,-34.34 0z" fill="white" />
  <path d="M125.62,228.56a17.23,17.23 0,1 0,17.17 17.23A17.21,17.21 0,0 0,125.62 228.56Z" fill="white" />
  <path d="M125.62,263a17,17 0,1 0,17.17 17A17.11,17.11 0,0 0,125.62 263Z" fill="white" />
  <path d="M108.45,177.47a17.17,17.17 0,1 0,17.17 -17A17.1,17.1 0,0 0,108.45 177.47Z" fill="white" />
  <path d="M160,228.56a17,17 0,1 0,-17.24 -17A17.13,17.13 0,0 0,160 228.56Z" fill="white" />
  <path d="M160,228.56a17.23,17.23 0,1 0,17.23 17.23A17.24,17.24 0,0 0,160 228.56Z" fill="white" />
  <path d="M160,263a17,17 0,1 0,17.23 17A17.14,17.14 0,0 0,160 263Z" fill="white" />
  <path d="M160,194.5a17,17 0,1 0,-17.24 -17A17.13,17.13 0,0 0,160 194.5Z" fill="white" />
  <path d="M194.43,228.56a17,17 0,1 0,-17.17 -17A17.09,17.09 0,0 0,194.43 228.56Z" fill="white" />
  <path d="M194.43,228.56a17.23,17.23 0,1 0,17.17 17.23A17.21,17.21 0,0 0,194.43 228.56Z" fill="white" />
  <path d="M194.43,263a17,17 0,1 0,17.17 17A17.11,17.11 0,0 0,194.43 263Z" fill="white" />
  <path d="M194.43,194.5a17,17 0,1 0,-17.17 -17A17.09,17.09 0,0 0,194.43 194.5Z" fill="white" />
  <path d="M228.84,194.5a17,17 0,1 0,17.24 17A17.14,17.14 0,0 0,228.84 194.5Z" fill="white" />
  <path d="M228.84,228.56a17.23,17.23 0,1 0,17.24 17.23A17.24,17.24 0,0 0,228.84 228.56Z" fill="white" />
  <path d="M228.84,263a17,17 0,1 0,17.24 17A17.14,17.14 0,0 0,228.84 263Z" fill="white" />
  <path d="M228.84,194.5a17,17 0,1 0,-17.24 -17A17.13,17.13 0,0 0,228.84 194.5Z" fill="white" />
  <path d="M246.08,211.53a17.17,17.03 0,1 0,34.34 0a17.17,17.03 0,1 0,-34.34 0z" fill="white" />
  <path d="M263.25,228.56a17.23,17.23 0,1 0,17.17 17.23A17.2,17.2 0,0 0,263.25 228.56Z" fill="white" />
  <path d="M263.25,263a17,17 0,1 0,17.17 17A17.1,17.1 0,0 0,263.25 263Z" fill="white" />
  <path d="M263.25,194.5a17,17 0,1 0,-17.17 -17A17.1,17.1 0,0 0,263.25 194.5Z" fill="white" />
  <path d="M297.52,194.5a17,17 0,1 0,17.11 17A17.07,17.07 0,0 0,297.52 194.5Z" fill="white" />
  <path d="M297.52,228.56a17.23,17.23 0,1 0,17.11 17.23A17.17,17.17 0,0 0,297.52 228.56Z" fill="white" />
  <path d="M297.52,263a17,17 0,1 0,17.11 17A17.07,17.07 0,0 0,297.52 263Z" fill="white" />
  <path d="M280.42,177.47a17.11,17.11 0,1 0,17.1 -17A17.06,17.06 0,0 0,280.42 177.47Z" fill="white" />
  <path d="M331.8,194.5a17,17 0,1 0,17.17 17A17.1,17.1 0,0 0,331.8 194.5Z" fill="white" />
  <path d="M331.8,228.56A17.23,17.23 0,1 0,349 245.79,17.2 17.2,0 0,0 331.8,228.56Z" fill="white" />
  <path d="M314.63,280.05a17.17,17.17 0,1 0,17.17 -17A17.09,17.09 0,0 0,314.63 280.05Z" fill="white" />
  <path d="M314.63,177.47a17.17,17.17 0,1 0,17.17 -17A17.09,17.09 0,0 0,314.63 177.47Z" fill="white" />
</svg>