<?xml version='1.0' encoding='utf-8'?>
<svg xmlns="http://www.w3.org/2000/svg" width="73.0dip" height="73.0dip" viewBox="0 0 389.0 389.0">
  <path d="M161.24,91.87a17.11,17.11 0,1 0,-17.11 -17.11A17.1,17.1 0,0 0,161.24 91.87Z" fill="white" />
  <path d="M127,91.87a17.11,17.11 0,1 0,-17.11 -17.11A17.1,17.1 0,0 0,127 91.87Z" fill="white" />
  <path d="M109.92,74.76a17.11,17.11 0,1 0,-17.1 17.11A17.11,17.11 0,0 0,109.92 74.76Z" fill="white" />
  <path d="M92.82,126.08A17.11,17.11 0,1 0,75.71 109,17.11 17.11,0 0,0 92.82,126.08Z" fill="white" />
  <path d="M109.92,109A17.11,17.11 0,1 0,127 91.87,17.11 17.11,0 0,0 109.92,109Z" fill="white" />
  <path d="M75.71,109a17.11,17.11 0,1 0,-17.1 17.11A17.11,17.11 0,0 0,75.71 109Z" fill="white" />
  <path d="M58.61,160.29A17.11,17.11 0,1 0,41.5 143.18,17.11 17.11,0 0,0 58.61,160.29Z" fill="white" />
  <path d="M75.71,143.18a17.11,17.11 0,1 0,17.11 -17.1A17.11,17.11 0,0 0,75.71 143.18Z" fill="white" />
  <path d="M41.5,143.18a17.11,17.11 0,1 0,-17.11 17.11A17.11,17.11 0,0 0,41.5 143.18Z" fill="white" />
  <path d="M75.71,177.4a17.11,17.11 0,1 0,-17.1 17.1A17.11,17.11 0,0 0,75.71 177.4Z" fill="white" />
  <path d="M75.71,177.4a17.11,17.11 0,1 0,17.11 -17.11A17.11,17.11 0,0 0,75.71 177.4Z" fill="white" />
  <path d="M41.5,177.4a17.11,17.11 0,1 0,-17.11 17.1A17.11,17.11 0,0 0,41.5 177.4Z" fill="white" />
  <path d="M75.71,211.61a17.11,17.11 0,1 0,-17.1 17.1A17.11,17.11 0,0 0,75.71 211.61Z" fill="white" />
  <path d="M75.71,211.61A17.11,17.11 0,1 0,92.82 194.5,17.11 17.11,0 0,0 75.71,211.61Z" fill="white" />
  <path d="M41.5,211.61a17.11,17.11 0,1 0,-17.11 17.1A17.11,17.11 0,0 0,41.5 211.61Z" fill="white" />
  <path d="M75.71,245.82a17.11,17.11 0,1 0,-17.1 17.1A17.11,17.11 0,0 0,75.71 245.82Z" fill="white" />
  <path d="M75.71,245.82a17.11,17.11 0,1 0,17.11 -17.11A17.1,17.1 0,0 0,75.71 245.82Z" fill="white" />
  <path d="M24.39,228.71A17.11,17.11 0,1 0,41.5 245.82,17.11 17.11,0 0,0 24.39,228.71Z" fill="white" />
  <path d="M109.92,280a17.11,17.11 0,1 0,-17.1 17.1A17.11,17.11 0,0 0,109.92 280Z" fill="white" />
  <path d="M109.92,280A17.11,17.11 0,1 0,127 262.92,17.1 17.1,0 0,0 109.92,280Z" fill="white" />
  <path d="M58.61,262.92A17.11,17.11 0,1 0,75.71 280,17.11 17.11,0 0,0 58.61,262.92Z" fill="white" />
  <path d="M127,297.13a17.11,17.11 0,1 0,17.1 17.11A17.11,17.11 0,0 0,127 297.13Z" fill="white" />
  <path d="M161.24,297.13a17.11,17.11 0,1 0,17.1 17.11A17.11,17.11 0,0 0,161.24 297.13Z" fill="white" />
  <path d="M92.82,297.13a17.11,17.11 0,1 0,17.1 17.11A17.11,17.11 0,0 0,92.82 297.13Z" fill="white" />
  <path d="M178.34,314.24a17.11,17.11 0,1 0,17.11 -17.11A17.1,17.1 0,0 0,178.34 314.24Z" fill="white" />
  <path d="M195.45,262.92A17.11,17.11 0,1 0,212.56 280,17.11 17.11,0 0,0 195.45,262.92Z" fill="white" />
  <path d="M161.24,297.13A17.11,17.11 0,1 0,144.13 280,17.09 17.09,0 0,0 161.24,297.13Z" fill="white" />
  <path d="M229.66,262.92A17.11,17.11 0,1 0,246.77 280,17.1 17.1,0 0,0 229.66,262.92Z" fill="white" />
  <path d="M127,262.92a17.11,17.11 0,1 0,-17.11 -17.1A17.09,17.09 0,0 0,127 262.92Z" fill="white" />
  <path d="M227.76,194.5a17.11,17.11 0,1 0,17.11 17.11A17.1,17.1 0,0 0,227.76 194.5Z" fill="white" />
  <path d="M262,194.5a17.11,17.11 0,1 0,17.11 17.11A17.11,17.11 0,0 0,262 194.5Z" fill="white" />
  <path d="M193.55,194.5a17.11,17.11 0,1 0,17.11 17.11A17.11,17.11 0,0 0,193.55 194.5Z" fill="white" />
  <path d="M227.76,194.5a17.11,17.11 0,1 0,-17.1 -17.1A17.11,17.11 0,0 0,227.76 194.5Z" fill="white" />
  <path d="M262,194.5a17.11,17.11 0,1 0,-17.1 -17.1A17.11,17.11 0,0 0,262 194.5Z" fill="white" />
  <path d="M210.66,177.4a17.11,17.11 0,1 0,-17.11 17.1A17.11,17.11 0,0 0,210.66 177.4Z" fill="white" />
  <path d="M279.08,143.18A17.11,17.11 0,1 0,262 160.29,17.11 17.11,0 0,0 279.08,143.18Z" fill="white" />
  <path d="M313.29,211.61a17.11,17.11 0,1 0,17.1 -17.11A17.11,17.11 0,0 0,313.29 211.61Z" fill="white" />
  <path d="M296.18,194.5a17.11,17.11 0,1 0,17.11 17.11A17.11,17.11 0,0 0,296.18 194.5Z" fill="white" />
  <path d="M330.39,160.29A17.11,17.11 0,1 0,347.5 177.4,17.11 17.11,0 0,0 330.39,160.29Z" fill="white" />
  <path d="M364.6,160.29a17.11,17.11 0,1 0,17.11 17.11A17.11,17.11 0,0 0,364.6 160.29Z" fill="white" />
  <path d="M296.18,160.29a17.11,17.11 0,1 0,17.11 17.11A17.11,17.11 0,0 0,296.18 160.29Z" fill="white" />
  <path d="M330.39,160.29a17.11,17.11 0,1 0,-17.1 -17.11A17.11,17.11 0,0 0,330.39 160.29Z" fill="white" />
  <path d="M364.6,160.29a17.11,17.11 0,1 0,-17.1 -17.11A17.11,17.11 0,0 0,364.6 160.29Z" fill="white" />
  <path d="M296.18,160.29a17.11,17.11 0,1 0,-17.1 -17.11A17.11,17.11 0,0 0,296.18 160.29Z" fill="white" />
  <path d="M210.66,143.18a17.11,17.11 0,1 0,-17.11 17.11A17.11,17.11 0,0 0,210.66 143.18Z" fill="white" />
  <path d="M159.34,160.29a17.11,17.11 0,1 0,17.1 17.11A17.11,17.11 0,0 0,159.34 160.29Z" fill="white" />
  <path d="M294.28,126.08A17.11,17.11 0,1 0,277.18 109,17.11 17.11,0 0,0 294.28,126.08Z" fill="white" />
  <path d="M328.49,126.08A17.11,17.11 0,1 0,311.39 109,17.11 17.11,0 0,0 328.49,126.08Z" fill="white" />
</svg>