<?xml version='1.0' encoding='utf-8'?>
<svg xmlns="http://www.w3.org/2000/svg" width="73.0dip" height="73.0dip" viewBox="0 0 389.0 389.0">
  <path d="M346.74,296.4a17.07,17.07 0,1 0,17.07 -17.28A17.18,17.18 0,0 0,346.74 296.4Z" fill="white" />
  <path d="M380.87,262a17.07,17.07 0,1 0,-17.06 17.09A17.06,17.06 0,0 0,380.87 262Z" fill="white" />
  <path d="M363.81,245a17.09,17.09 0,1 0,-17.07 -17.09A17.08,17.08 0,0 0,363.81 245Z" fill="white" />
  <path d="M329.75,210.79a17.28,17.28 0,1 0,-17 -17.28A17.14,17.14 0,0 0,329.75 210.79Z" fill="white" />
  <path d="M312.75,193.51a16.94,16.94 0,1 0,-16.94 17.28A17.11,17.11 0,0 0,312.75 193.51Z" fill="white" />
  <path d="M108.64,262a16.87,16.87 0,1 0,-16.87 17.09A17,17 0,0 0,108.64 262Z" fill="white" />
  <path d="M91.77,279.12a17.28,17.28 0,1 0,16.87 17.28A17.08,17.08 0,0 0,91.77 279.12Z" fill="white" />
  <path d="M125.64,279.12a17.08,17.08 0,1 0,-17 -17.09A17,17 0,0 0,125.64 279.12Z" fill="white" />
  <path d="M142.64,296.4a17,17 0,1 0,-17 17.28A17.14,17.14 0,0 0,142.64 296.4Z" fill="white" />
  <path d="M125.64,313.68a17.08,17.08 0,1 0,17 17.08A17,17 0,0 0,125.64 313.68Z" fill="white" />
  <path d="M142.64,227.87a17,17 0,1 0,-17 17.09A17,17 0,0 0,142.64 227.87Z" fill="white" />
  <path d="M142.64,262A17.06,17.06 0,1 0,159.7 245,17.08 17.08,0 0,0 142.64,262Z" fill="white" />
  <path d="M159.7,279.12a17.28,17.28 0,1 0,17.06 17.28A17.17,17.17 0,0 0,159.7 279.12Z" fill="white" />
  <path d="M159.7,313.68a17.08,17.08 0,1 0,17.06 17.08A17.07,17.07 0,0 0,159.7 313.68Z" fill="white" />
  <path d="M159.7,245a17.09,17.09 0,1 0,-17.06 -17.09A17.08,17.08 0,0 0,159.7 245Z" fill="white" />
  <path d="M193.76,279.12a17.08,17.08 0,1 0,-17 -17.09A17,17 0,0 0,193.76 279.12Z" fill="white" />
  <path d="M193.76,279.12a17.28,17.28 0,1 0,17 17.28A17.14,17.14 0,0 0,193.76 279.12Z" fill="white" />
  <path d="M193.76,313.68a17.08,17.08 0,1 0,17 17.08A17,17 0,0 0,193.76 313.68Z" fill="white" />
  <path d="M227.82,279.12A17.08,17.08 0,1 0,210.76 262,17.08 17.08,0 0,0 227.82,279.12Z" fill="white" />
  <path d="M227.82,279.12a17.28,17.28 0,1 0,17.07 17.28A17.17,17.17 0,0 0,227.82 279.12Z" fill="white" />
  <path d="M227.82,313.68a17.08,17.08 0,1 0,17.07 17.08A17.07,17.07 0,0 0,227.82 313.68Z" fill="white" />
  <path d="M244.89,227.87A17.07,17.07 0,1 0,227.82 245,17.08 17.08,0 0,0 244.89,227.87Z" fill="white" />
  <path d="M261.88,279.12a17.08,17.08 0,1 0,-17 -17.09A17,17 0,0 0,261.88 279.12Z" fill="white" />
  <path d="M261.88,279.12a17.28,17.28 0,1 0,17 17.28A17.14,17.14 0,0 0,261.88 279.12Z" fill="white" />
  <path d="M261.88,313.68a17.08,17.08 0,1 0,17 17.08A17,17 0,0 0,261.88 313.68Z" fill="white" />
  <path d="M261.88,245a17.09,17.09 0,1 0,-17 -17.09A17,17 0,0 0,261.88 245Z" fill="white" />
  <path d="M295.81,279.12A17.08,17.08 0,1 0,278.88 262,17 17,0 0,0 295.81,279.12Z" fill="white" />
  <path d="M295.81,279.12a17.28,17.28 0,1 0,16.94 17.28A17.11,17.11 0,0 0,295.81 279.12Z" fill="white" />
  <path d="M295.81,313.68a17.08,17.08 0,1 0,16.94 17.08A17,17 0,0 0,295.81 313.68Z" fill="white" />
  <path d="M295.81,245a17.09,17.09 0,1 0,-16.93 -17.09A17,17 0,0 0,295.81 245Z" fill="white" />
  <path d="M329.75,245a17.08,17.08 0,1 0,17 17.07A17,17 0,0 0,329.75 245Z" fill="white" />
  <path d="M329.75,279.12a17.28,17.28 0,1 0,17 17.28A17.14,17.14 0,0 0,329.75 279.12Z" fill="white" />
  <path d="M312.75,330.76a17,17 0,1 0,17 -17.08A17,17 0,0 0,312.75 330.76Z" fill="white" />
  <path d="M312.75,227.87a17,17 0,1 0,17 -17.08A17,17 0,0 0,312.75 227.87Z" fill="white" />
  <path d="M262.89,107a17.09,17.09 0,1 0,-17.06 -17.09A17.08,17.08 0,0 0,262.89 107Z" fill="white" />
  <path d="M60.26,72.81A17.09,17.09 0,1 0,77.33 89.89,17.07 17.07,0 0,0 60.26,72.81Z" fill="white" />
  <path d="M8.13,192.78a17.06,17.08 0,1 0,34.12 0a17.06,17.08 0,1 0,-34.12 0z" fill="white" />
  <path d="M161.58,75.32a17.08,17.08 0,1 0,-17.06 -17.08A17.07,17.07 0,0 0,161.58 75.32Z" fill="white" />
  <path d="M95.34,176.23a17.07,17.07 0,0 0,16.56 -13,17 17,0 0,0 33.12,0 17,17 0,0 0,33.12 0,17 17,0 0,0 33.12,0 17.09,17.09 0,1 0,0 -8.09,17 17,0 0,0 -13.66,-12.77 17.07,17.07 0,1 0,-19.46 -20.87,17 17,0 0,0 -33.12,0 17.06,17.06 0,1 0,-19.46 20.87A17,17 0,0 0,111.9 155.1a17.06,17.06 0,1 0,-16.56 21.13ZM178.14,129.56a17.07,17.07 0,0 0,13.67 12.77,17.06 17.06,0 0,0 -13.67,12.77 17.07,17.07 0,0 0,-13.67 -12.77A17.08,17.08 0,0 0,178.14 129.56ZM145.02,129.56a17.06,17.06 0,0 0,13.66 12.77A17,17 0,0 0,145 155.1a17.07,17.07 0,0 0,-13.67 -12.77A17.08,17.08 0,0 0,145 129.56Z" fill="white" />
</svg>