<?xml version='1.0' encoding='utf-8'?>
<svg xmlns="http://www.w3.org/2000/svg" width="73.0dip" height="73.0dip" viewBox="0 0 389.0 389.0">
  <path d="M22.93,143.06A17.08,17.08 0,1 1,5.78 160.14,17.12 17.12,0 0,1 22.93,143.06Z" fill="white" />
  <path d="M366,177.22a17.28,17.28 0,1 1,-17.21 17.28A17.25,17.25 0,0 1,366 177.22Z" fill="white" />
  <path d="M366,143.06a17.08,17.08 0,1 1,-17.21 17.08A17.15,17.15 0,0 1,366 143.06Z" fill="white" />
  <path d="M366,108.9A17.08,17.08 0,1 1,348.79 126,17.15 17.15,0 0,1 366,108.9Z" fill="white" />
  <path d="M331.64,74.34a17.28,17.28 0,1 1,-17.15 17.28A17.22,17.22 0,0 1,331.64 74.34Z" fill="white" />
  <path d="M297.4,74.34a17.28,17.28 0,1 1,-17.08 17.28A17.19,17.19 0,0 1,297.4 74.34Z" fill="white" />
  <path d="M263.17,74.34A17.28,17.28 0,1 1,246 91.62,17.22 17.22,0 0,1 263.17,74.34Z" fill="white" />
  <path d="M228.8,74.34a17.28,17.28 0,1 1,-17.22 17.28A17.25,17.25 0,0 1,228.8 74.34Z" fill="white" />
  <path d="M194.43,74.34a17.28,17.28 0,1 1,-17.15 17.28A17.21,17.21 0,0 1,194.43 74.34Z" fill="white" />
  <path d="M125.7,74.34a17.28,17.28 0,1 1,-17.15 17.28A17.22,17.22 0,0 1,125.7 74.34Z" fill="white" />
  <path d="M91.53,74.34a17.28,17.28 0,1 1,-17 17.28A17.15,17.15 0,0 1,91.53 74.34Z" fill="white" />
  <path d="M228.8,40.18a17.08,17.08 0,1 1,-17.22 17.08A17.15,17.15 0,0 1,228.8 40.18Z" fill="white" />
  <path d="M263.17,40.18A17.08,17.08 0,1 1,246 57.26,17.12 17.12,0 0,1 263.17,40.18Z" fill="white" />
  <path d="M297.4,40.18a17.08,17.08 0,1 1,-17.08 17.08A17.09,17.09 0,0 1,297.4 40.18Z" fill="white" />
  <path d="M22.93,177.22A17.28,17.28 0,1 1,5.78 194.5,17.22 17.22,0 0,1 22.93,177.22Z" fill="white" />
  <path d="M57.3,143.06a17.08,17.08 0,1 1,-17.22 17.08A17.14,17.14 0,0 1,57.3 143.06Z" fill="white" />
  <path d="M57.3,177.22A17.28,17.28 0,1 1,40.08 194.5,17.24 17.24,0 0,1 57.3,177.22Z" fill="white" />
  <path d="M57.3,211.78a17.08,17.08 0,1 1,-17.22 17.08A17.14,17.14 0,0 1,57.3 211.78Z" fill="white" />
  <path d="M57.3,108.9A17.08,17.08 0,1 1,40.08 126,17.14 17.14,0 0,1 57.3,108.9Z" fill="white" />
  <path d="M91.53,143.06a17.08,17.08 0,1 1,-17 17.08A17.05,17.05 0,0 1,91.53 143.06Z" fill="white" />
  <path d="M91.53,177.22a17.28,17.28 0,1 1,-17 17.28A17.15,17.15 0,0 1,91.53 177.22Z" fill="white" />
  <path d="M91.53,211.78a17.08,17.08 0,1 1,-17 17.08A17,17 0,0 1,91.53 211.78Z" fill="white" />
  <path d="M91.53,108.9a17.08,17.08 0,1 1,-17 17.08A17.05,17.05 0,0 1,91.53 108.9Z" fill="white" />
  <path d="M125.7,143.06a17.08,17.08 0,1 1,-17.15 17.08A17.12,17.12 0,0 1,125.7 143.06Z" fill="white" />
  <path d="M125.7,177.22a17.28,17.28 0,1 1,-17.15 17.28A17.22,17.22 0,0 1,125.7 177.22Z" fill="white" />
  <path d="M125.7,211.78a17.08,17.08 0,1 1,-17.15 17.08A17.11,17.11 0,0 1,125.7 211.78Z" fill="white" />
  <path d="M125.7,108.9A17.08,17.08 0,1 1,108.55 126,17.12 17.12,0 0,1 125.7,108.9Z" fill="white" />
  <path d="M160.07,143.06a17.08,17.08 0,1 1,-17.22 17.08A17.14,17.14 0,0 1,160.07 143.06Z" fill="white" />
  <path d="M160.07,177.22a17.28,17.28 0,1 1,-17.22 17.28A17.24,17.24 0,0 1,160.07 177.22Z" fill="white" />
  <path d="M160.07,211.78a17.08,17.08 0,1 1,-17.22 17.08A17.14,17.14 0,0 1,160.07 211.78Z" fill="white" />
  <path d="M160.07,108.9A17.08,17.08 0,1 1,142.85 126,17.14 17.14,0 0,1 160.07,108.9Z" fill="white" />
  <path d="M194.43,143.06a17.08,17.08 0,1 1,-17.15 17.08A17.11,17.11 0,0 1,194.43 143.06Z" fill="white" />
  <path d="M194.43,177.22a17.28,17.28 0,1 1,-17.15 17.28A17.21,17.21 0,0 1,194.43 177.22Z" fill="white" />
  <path d="M194.43,211.78a17.08,17.08 0,1 1,-17.15 17.08A17.11,17.11 0,0 1,194.43 211.78Z" fill="white" />
  <path d="M194.43,108.9A17.08,17.08 0,1 1,177.28 126,17.11 17.11,0 0,1 194.43,108.9Z" fill="white" />
  <path d="M228.8,143.06a17.08,17.08 0,1 1,-17.22 17.08A17.15,17.15 0,0 1,228.8 143.06Z" fill="white" />
  <path d="M228.8,177.22a17.28,17.28 0,1 1,-17.22 17.28A17.25,17.25 0,0 1,228.8 177.22Z" fill="white" />
  <path d="M228.8,211.78a17.08,17.08 0,1 1,-17.22 17.08A17.15,17.15 0,0 1,228.8 211.78Z" fill="white" />
  <path d="M228.8,108.9A17.08,17.08 0,1 1,211.58 126,17.15 17.15,0 0,1 228.8,108.9Z" fill="white" />
  <path d="M263.17,143.06A17.08,17.08 0,1 1,246 160.14,17.12 17.12,0 0,1 263.17,143.06Z" fill="white" />
  <path d="M263.17,177.22A17.28,17.28 0,1 1,246 194.5,17.22 17.22,0 0,1 263.17,177.22Z" fill="white" />
  <path d="M263.17,211.78A17.08,17.08 0,1 1,246 228.86,17.11 17.11,0 0,1 263.17,211.78Z" fill="white" />
  <path d="M263.17,108.9A17.08,17.08 0,1 1,246 126,17.12 17.12,0 0,1 263.17,108.9Z" fill="white" />
  <path d="M297.4,143.06a17.08,17.08 0,1 1,-17.08 17.08A17.09,17.09 0,0 1,297.4 143.06Z" fill="white" />
  <path d="M297.4,177.22a17.28,17.28 0,1 1,-17.08 17.28A17.19,17.19 0,0 1,297.4 177.22Z" fill="white" />
  <path d="M297.4,211.78a17.08,17.08 0,1 1,-17.08 17.08A17.08,17.08 0,0 1,297.4 211.78Z" fill="white" />
  <path d="M297.4,108.9A17.08,17.08 0,1 1,280.32 126,17.09 17.09,0 0,1 297.4,108.9Z" fill="white" />
  <path d="M331.64,143.06a17.08,17.08 0,1 1,-17.15 17.08A17.12,17.12 0,0 1,331.64 143.06Z" fill="white" />
  <path d="M331.64,177.22a17.28,17.28 0,1 1,-17.15 17.28A17.22,17.22 0,0 1,331.64 177.22Z" fill="white" />
  <path d="M331.64,211.78a17.08,17.08 0,1 1,-17.15 17.08A17.11,17.11 0,0 1,331.64 211.78Z" fill="white" />
  <path d="M331.64,108.9A17.08,17.08 0,1 1,314.49 126,17.12 17.12,0 0,1 331.64,108.9Z" fill="white" />
  <path d="M57.3,314.66a17.08,17.08 0,1 1,-17.22 17.08A17.14,17.14 0,0 1,57.3 314.66Z" fill="white" />
  <path d="M92.28,281.55c9.77,0 17.69,7.53 17.69,16.82s-7.92,16.81 -17.69,16.81 -17.7,-7.53 -17.7,-16.81S82.51,281.55 92.28,281.55Z" fill="white" />
  <path d="M159.52,314.66a17.08,17.08 0,1 1,-17.21 17.08A17.15,17.15 0,0 1,159.52 314.66Z" fill="white" />
  <path d="M194.5,281.55c9.77,0 17.69,7.53 17.69,16.82s-7.92,16.81 -17.69,16.81 -17.69,-7.53 -17.69,-16.81S184.73,281.55 194.5,281.55Z" fill="white" />
  <path d="M263.71,314.66a17.08,17.08 0,1 1,-17.22 17.08A17.15,17.15 0,0 1,263.71 314.66Z" fill="white" />
  <path d="M298.69,281.55c9.77,0 17.69,7.53 17.69,16.82s-7.92,16.81 -17.69,16.81S281,307.65 281,298.37 288.92,281.55 298.69,281.55Z" fill="white" />
</svg>