<?xml version='1.0' encoding='utf-8'?>
<svg xmlns="http://www.w3.org/2000/svg" width="73.0dip" height="73.0dip" viewBox="0 0 389.0 389.0">
  <path d="M124.93,210.7a17.16,17.16 0,1 0,-17.15 -17.15A17.15,17.15 0,0 0,124.93 210.7Z" fill="white" />
  <path d="M90.63,210.7a17.16,17.16 0,1 0,-17.16 -17.15A17.15,17.15 0,0 0,90.63 210.7Z" fill="white" />
  <path d="M56.32,176.39a17.16,17.16 0,1 0,17.15 17.16A17.15,17.15 0,0 0,56.32 176.39Z" fill="white" />
  <path d="M176.39,126.84a17.16,17.16 0,1 0,17.16 -17.16A17.15,17.15 0,0 0,176.39 126.84Z" fill="white" />
  <path d="M210.7,92.53a17.16,17.16 0,1 0,-17.15 17.15A17.15,17.15 0,0 0,210.7 92.53Z" fill="white" />
  <path d="M210.7,58.22a17.16,17.16 0,1 0,-17.15 17.16A17.15,17.15 0,0 0,210.7 58.22Z" fill="white" />
  <path d="M210.7,264.07a17.16,17.16 0,1 0,-17.15 17.15A17.15,17.15 0,0 0,210.7 264.07Z" fill="white" />
  <path d="M176.39,298.37A17.15,17.15 0,0 0,188 314.57a17.15,17.15 0,1 0,11.2 0,17.15 17.15,0 1,0 -22.76,-16.2Z" fill="white" />
  <path d="M139.85,248.2a17.12,17.12 0,0 0,-28.33 6.54,16.92 16.92,0 0,0 -4.07,-6.54 17.15,17.15 0,1 0,0 24.25,16.92 16.92,0 0,0 4.07,-6.54 17.11,17.11 0,0 0,16.19 11.57,17.15 17.15,0 1,0 12.14,5 17.11,17.11 0,0 0,-12.14 -5,17.16 17.16,0 0,0 12.11,-29.28Z" fill="white" />
  <path d="M140.87,140.87a17.14,17.14 0,1 0,-24.23 0A17.15,17.15 0,0 0,140.87 140.87Z" fill="white" />
  <path d="M193.55,176.39a17.16,17.16 0,1 0,17.15 17.16A17.16,17.16 0,0 0,193.55 176.39Z" fill="white" />
  <path d="M161.15,208.79A17.16,17.16 0,1 0,178.3 226,17.16 17.16,0 0,0 161.15,208.79Z" fill="white" />
  <path d="M161.15,178.3A17.16,17.16 0,1 0,144 161.14,17.15 17.15,0 0,0 161.15,178.3Z" fill="white" />
  <path d="M140.87,106.56a17.13,17.13 0,1 0,-24.23 0A17.13,17.13 0,0 0,140.87 106.56Z" fill="white" />
  <path d="M106.56,140.87a17.14,17.14 0,1 0,-24.23 0A17.15,17.15 0,0 0,106.56 140.87Z" fill="white" />
  <path d="M264.07,176.39a17.16,17.16 0,1 0,17.15 17.16A17.16,17.16 0,0 0,264.07 176.39Z" fill="white" />
  <path d="M298.37,176.39a17.16,17.16 0,1 0,17.16 17.16A17.15,17.15 0,0 0,298.37 176.39Z" fill="white" />
  <path d="M332.68,176.39a17.16,17.16 0,1 0,17.15 17.16A17.15,17.15 0,0 0,332.68 176.39Z" fill="white" />
  <path d="M272.36,140.87a17.14,17.14 0,1 0,-24.23 0A17.13,17.13 0,0 0,272.36 140.87Z" fill="white" />
  <path d="M227.85,208.79A17.16,17.16 0,1 0,245 226,17.15 17.15,0 0,0 227.85,208.79Z" fill="white" />
  <path d="M227.85,178.3a17.16,17.16 0,1 0,-17.15 -17.16A17.16,17.16 0,0 0,227.85 178.3Z" fill="white" />
  <path d="M272.36,106.56a17.13,17.13 0,1 0,-24.23 0A17.12,17.12 0,0 0,272.36 106.56Z" fill="white" />
  <path d="M306.67,140.87a17.14,17.14 0,1 0,-24.23 0A17.15,17.15 0,0 0,306.67 140.87Z" fill="white" />
  <path d="M281.55,248.2a16.92,16.92 0,0 0,-4.07 6.54,17.14 17.14,0 1,0 -16.22,22.74 17.15,17.15 0,1 0,12.15 5,17.09 17.09,0 0,0 -12.15,-5 17.11,17.11 0,0 0,16.18 -11.57,16.92 16.92,0 0,0 4.07,6.54 17.15,17.15 0,1 0,0 -24.25Z" fill="white" />
</svg>