<?xml version='1.0' encoding='utf-8'?>
<svg xmlns="http://www.w3.org/2000/svg" width="73.0dip" height="73.0dip" viewBox="0 0 389.0 389.0">
  <path d="M194.5,143.28a17.1,17.1 0,1 0,-17.09 -17.1A17.11,17.11 0,0 0,194.5 143.28Z" fill="white" />
  <path d="M194.5,177.4a17.06,17.06 0,1 0,-17.09 -17.06A17.08,17.08 0,0 0,194.5 177.4Z" fill="white" />
  <path d="M194.5,177.4a17.1,17.1 0,1 0,17.1 17.1A17.1,17.1 0,0 0,194.5 177.4Z" fill="white" />
  <path d="M194.5,211.59a17.1,17.1 0,1 0,17.1 17.1A17.1,17.1 0,0 0,194.5 211.59Z" fill="white" />
  <path d="M194.5,245.78a17.07,17.07 0,1 0,17.1 17.07A17.08,17.08 0,0 0,194.5 245.78Z" fill="white" />
  <path d="M177.41,126.18a17.07,17.07 0,1 0,-17.07 17.1A17.08,17.08 0,0 0,177.41 126.18Z" fill="white" />
  <path d="M160.34,177.4a17.06,17.06 0,1 0,-17.06 -17.06A17.06,17.06 0,0 0,160.34 177.4Z" fill="white" />
  <path d="M177.41,194.5a17.07,17.07 0,1 0,-17.07 17.09A17.09,17.09 0,0 0,177.41 194.5Z" fill="white" />
  <path d="M177.41,228.69a17.07,17.07 0,1 0,-17.07 17.09A17.09,17.09 0,0 0,177.41 228.69Z" fill="white" />
  <path d="M160.34,245.78a17.07,17.07 0,1 0,17.07 17.07A17.06,17.06 0,0 0,160.34 245.78Z" fill="white" />
  <path d="M228.66,143.28a17.1,17.1 0,1 0,-17.06 -17.1A17.08,17.08 0,0 0,228.66 143.28Z" fill="white" />
  <path d="M211.6,160.34a17.06,17.06 0,1 0,17.06 -17.06A17.06,17.06 0,0 0,211.6 160.34Z" fill="white" />
  <path d="M228.66,177.4a17.1,17.1 0,1 0,17.06 17.1A17.08,17.08 0,0 0,228.66 177.4Z" fill="white" />
  <path d="M228.66,211.59a17.1,17.1 0,1 0,17.06 17.1A17.08,17.08 0,0 0,228.66 211.59Z" fill="white" />
  <path d="M211.6,262.85a17.06,17.06 0,1 0,17.06 -17.07A17.06,17.06 0,0 0,211.6 262.85Z" fill="white" />
  <path d="M262.82,177.4a17.06,17.06 0,1 0,-17.1 -17.06A17.08,17.08 0,0 0,262.82 177.4Z" fill="white" />
  <path d="M245.72,194.5a17.1,17.1 0,1 0,17.1 -17.1A17.1,17.1 0,0 0,245.72 194.5Z" fill="white" />
  <path d="M279.91,228.69a17.1,17.1 0,1 0,-17.09 17.09A17.1,17.1 0,0 0,279.91 228.69Z" fill="white" />
  <path d="M143.28,160.34a17.1,17.1 0,1 0,-17.1 17.06A17.08,17.08 0,0 0,143.28 160.34Z" fill="white" />
  <path d="M143.28,194.5a17.1,17.1 0,1 0,-17.1 17.09A17.11,17.11 0,0 0,143.28 194.5Z" fill="white" />
  <path d="M126.18,211.59a17.1,17.1 0,1 0,17.1 17.1A17.1,17.1 0,0 0,126.18 211.59Z" fill="white" />
  <path d="M194.5,78.45a17.1,17.1 0,1 0,-17.09 -17.1A17.1,17.1 0,0 0,194.5 78.45Z" fill="white" />
  <path d="M194.5,310.61a17.07,17.07 0,1 0,17.1 17.06A17.08,17.08 0,0 0,194.5 310.61Z" fill="white" />
  <path d="M327.64,177.4a17.1,17.1 0,1 0,17.1 17.1A17.1,17.1 0,0 0,327.64 177.4Z" fill="white" />
  <path d="M61.36,177.4a17.1,17.1 0,1 0,17.09 17.1A17.11,17.11 0,0 0,61.36 177.4Z" fill="white" />
  <path d="M276.54,88.26a17.09,17.09 0,1 0,24.17 0A17.11,17.11 0,0 0,276.54 88.26Z" fill="white" />
  <path d="M88.26,276.57a17.09,17.09 0,1 0,24.17 0A17.1,17.1 0,0 0,88.26 276.57Z" fill="white" />
  <path d="M276.54,276.57a17.09,17.09 0,1 0,24.17 0A17.1,17.1 0,0 0,276.54 276.57Z" fill="white" />
  <path d="M112.43,112.44a17.09,17.09 0,1 0,-24.17 0A17.09,17.09 0,0 0,112.43 112.44Z" fill="white" />
</svg>