<?xml version='1.0' encoding='utf-8'?>
<svg xmlns="http://www.w3.org/2000/svg" width="389.0dip" height="389.0dip" viewBox="0 0 389.0 389.0">
  <path d="M245.79,57.72a17.1,17.1 0,1 0,-17.1 17.1A17.09,17.09 0,0 0,245.79 57.72Z" fill="white" />
  <path d="M228.69,109A17.1,17.1 0,1 0,211.6 91.92,17.09 17.09,0 0,0 228.69,109Z" fill="white" />
  <path d="M211.6,91.92A17.1,17.1 0,1 0,194.5 109,17.1 17.1,0 0,0 211.6,91.92Z" fill="white" />
  <path d="M194.5,143.21a17.1,17.1 0,1 0,-17.1 -17.1A17.11,17.11 0,0 0,194.5 143.21Z" fill="white" />
  <path d="M177.4,126.11a17.1,17.1 0,1 0,-17.09 17.1A17.1,17.1 0,0 0,177.4 126.11Z" fill="white" />
  <path d="M211.6,126.11A17.1,17.1 0,1 0,228.69 109,17.1 17.1,0 0,0 211.6,126.11Z" fill="white" />
  <path d="M211.6,160.31a17.1,17.1 0,1 0,17.09 -17.1A17.09,17.09 0,0 0,211.6 160.31Z" fill="white" />
  <path d="M211.6,160.31a17.1,17.1 0,1 0,-17.1 17.09A17.1,17.1 0,0 0,211.6 160.31Z" fill="white" />
  <path d="M177.4,160.31a17.1,17.1 0,1 0,-17.09 17.09A17.09,17.09 0,0 0,177.4 160.31Z" fill="white" />
  <path d="M126.11,143.21A17.09,17.09 0,0 0,109 160.31c0,9.44 7.65,19 17.09,19s17.1,-9.55 17.1,-19A17.09,17.09 0,0 0,126.11 143.21Z" fill="white" />
  <path d="M109,195.45c0,10 7.65,18.05 17.09,18.05s17.1,-8.09 17.1,-18.05 -7.66,-16.15 -17.1,-16.15S109,185.48 109,195.45Z" fill="white" />
  <path d="M91.92,177.4c-9.44,0 -17.1,8.08 -17.1,18s7.66,18.05 17.1,18.05 17.1,-8.09 17.1,-18.05S101.36,177.4 91.92,177.4Z" fill="white" />
  <path d="M143.21,331.27a17.1,17.1 0,1 0,17.1 -17.09A17.09,17.09 0,0 0,143.21 331.27Z" fill="white" />
  <path d="M160.31,280a17.1,17.1 0,1 0,17.09 17.1A17.1,17.1 0,0 0,160.31 280Z" fill="white" />
  <path d="M177.4,297.08A17.1,17.1 0,1 0,194.5 280,17.11 17.11,0 0,0 177.4,297.08Z" fill="white" />
  <path d="M194.5,245.79a17.1,17.1 0,1 0,17.1 17.1A17.1,17.1 0,0 0,194.5 245.79Z" fill="white" />
  <path d="M211.6,262.89a17.1,17.1 0,1 0,17.09 -17.1A17.09,17.09 0,0 0,211.6 262.89Z" fill="white" />
  <path d="M177.4,262.89A17.1,17.1 0,1 0,160.31 280,17.09 17.09,0 0,0 177.4,262.89Z" fill="white" />
  <path d="M177.4,228.69a17.1,17.1 0,1 0,-17.09 17.1A17.09,17.09 0,0 0,177.4 228.69Z" fill="white" />
  <path d="M194.5,211.6a17.1,17.1 0,1 0,17.1 17.09A17.1,17.1 0,0 0,194.5 211.6Z" fill="white" />
  <path d="M228.69,211.6a17.1,17.1 0,1 0,17.1 17.09A17.09,17.09 0,0 0,228.69 211.6Z" fill="white" />
  <path d="M262.89,211.6A17.1,17.1 0,1 0,280 228.69,17.1 17.1,0 0,0 262.89,211.6Z" fill="white" />
  <path d="M262.89,175.5c-9.45,0 -17.1,8.08 -17.1,18.05s7.65,18 17.1,18 17.1,-8.09 17.1,-18S272.33,175.5 262.89,175.5Z" fill="white" />
  <path d="M297.08,175.5c-9.44,0 -17.09,8.08 -17.09,18.05s7.65,18 17.09,18 17.1,-8.09 17.1,-18S306.52,175.5 297.08,175.5Z" fill="white" />
  <path d="M211.6,194.5a17.1,17.1 0,1 0,17.09 -17.1A17.1,17.1 0,0 0,211.6 194.5Z" fill="white" />
  <path d="M211.6,194.5a17.1,17.1 0,1 0,-17.1 17.1A17.11,17.11 0,0 0,211.6 194.5Z" fill="white" />
  <path d="M177.4,194.5a17.1,17.1 0,1 0,-17.09 17.1A17.1,17.1 0,0 0,177.4 194.5Z" fill="white" />
</svg>