<?xml version='1.0' encoding='utf-8'?>
<svg xmlns="http://www.w3.org/2000/svg" width="144.48999dip" height="144.48999dip" viewBox="0 0 144.49 144.49">
  <path d="M66.17,80.46c-0.55,0 -0.98,0 -1.4,0 -4.11,0 -8.22,-0.01 -12.32,0 -0.94,0 -1.72,-0.22 -2.2,-1.09 -0.49,-0.89 -0.17,-1.66 0.34,-2.42 7.93,-11.89 15.86,-23.78 23.77,-35.67 0.64,-0.96 1.43,-1.5 2.58,-1.13 1.12,0.36 1.39,1.29 1.39,2.36 0,6.76 0,13.51 0,20.27 0,0.46 0,0.93 0,1.53 0.55,0 0.97,0 1.4,0 4.11,0 8.22,0.01 12.32,0 0.94,0 1.72,0.22 2.2,1.08 0.49,0.89 0.18,1.66 -0.34,2.43 -7.93,11.89 -15.86,23.78 -23.77,35.67 -0.64,0.96 -1.43,1.5 -2.59,1.13 -1.12,-0.36 -1.39,-1.29 -1.39,-2.36 0,-6.76 0,-13.51 0,-20.27 0,-0.46 0,-0.93 0,-1.52Z" fill="#ffffff" stroke-width="0.0" />
</svg>